<mxfile host="app.diagrams.net" modified="2020-07-17T13:18:45.189Z" agent="5.0 (Windows NT 10.0; Win64; x64) AppleWebKit/537.36 (KHTML, like Gecko) Chrome/84.0.4147.89 Safari/537.36" etag="zQq_EwaVpuOzG_cE4hG9" version="13.4.5" type="github">
  <diagram id="WMBnukoaxN1IHDbiz8Kx" name="Page-1">
    <mxGraphModel dx="1077" dy="474" grid="1" gridSize="10" guides="1" tooltips="1" connect="1" arrows="1" fold="1" page="1" pageScale="1" pageWidth="1100" pageHeight="850" math="0" shadow="0">
      <root>
        <mxCell id="0" />
        <mxCell id="1" parent="0" />
        <mxCell id="U6XWI17R4oiPlInl3l0V-1" style="edgeStyle=orthogonalEdgeStyle;rounded=0;orthogonalLoop=1;jettySize=auto;html=1;exitX=1;exitY=0.5;exitDx=0;exitDy=0;entryX=0;entryY=0.5;entryDx=0;entryDy=0;" parent="1" source="U6XWI17R4oiPlInl3l0V-2" target="U6XWI17R4oiPlInl3l0V-5" edge="1">
          <mxGeometry relative="1" as="geometry" />
        </mxCell>
        <mxCell id="U6XWI17R4oiPlInl3l0V-2" value="INTERNET GATEWAY" style="rounded=0;whiteSpace=wrap;html=1;fillColor=#dae8fc;strokeColor=#6c8ebf;" parent="1" vertex="1">
          <mxGeometry x="50" y="220" width="80" height="50" as="geometry" />
        </mxCell>
        <mxCell id="U6XWI17R4oiPlInl3l0V-40" style="edgeStyle=orthogonalEdgeStyle;rounded=0;orthogonalLoop=1;jettySize=auto;html=1;exitX=1;exitY=0.25;exitDx=0;exitDy=0;entryX=0.5;entryY=1;entryDx=0;entryDy=0;" parent="1" source="U6XWI17R4oiPlInl3l0V-5" target="U6XWI17R4oiPlInl3l0V-10" edge="1">
          <mxGeometry relative="1" as="geometry" />
        </mxCell>
        <mxCell id="U6XWI17R4oiPlInl3l0V-41" style="edgeStyle=orthogonalEdgeStyle;rounded=0;orthogonalLoop=1;jettySize=auto;html=1;exitX=1;exitY=0.75;exitDx=0;exitDy=0;entryX=0.63;entryY=0.039;entryDx=0;entryDy=0;entryPerimeter=0;" parent="1" source="U6XWI17R4oiPlInl3l0V-5" target="U6XWI17R4oiPlInl3l0V-12" edge="1">
          <mxGeometry relative="1" as="geometry" />
        </mxCell>
        <mxCell id="U6XWI17R4oiPlInl3l0V-5" value="&lt;b&gt;EXTERNAL LOAD BALANCER&lt;/b&gt;" style="rounded=0;whiteSpace=wrap;html=1;fillColor=#d5e8d4;strokeColor=#82b366;" parent="1" vertex="1">
          <mxGeometry x="230" y="220" width="90" height="50" as="geometry" />
        </mxCell>
        <mxCell id="U6XWI17R4oiPlInl3l0V-6" value="" style="rounded=0;whiteSpace=wrap;html=1;dashed=1;fillColor=none;strokeColor=#82b366;" parent="1" vertex="1">
          <mxGeometry x="270" y="50" width="240" height="120" as="geometry" />
        </mxCell>
        <mxCell id="U6XWI17R4oiPlInl3l0V-7" value="" style="rounded=0;whiteSpace=wrap;html=1;dashed=1;fillColor=none;strokeColor=#82b366;" parent="1" vertex="1">
          <mxGeometry x="270" y="320" width="240" height="120" as="geometry" />
        </mxCell>
        <mxCell id="U6XWI17R4oiPlInl3l0V-8" value="" style="rounded=0;whiteSpace=wrap;html=1;dashed=1;fillColor=#ffe6cc;strokeColor=#d79b00;" parent="1" vertex="1">
          <mxGeometry x="530" y="50" width="260" height="120" as="geometry" />
        </mxCell>
        <mxCell id="ZDiyyLi-UDaJgCNsjGBP-35" style="edgeStyle=orthogonalEdgeStyle;rounded=0;orthogonalLoop=1;jettySize=auto;html=1;exitX=1;exitY=0.5;exitDx=0;exitDy=0;entryX=0;entryY=0;entryDx=0;entryDy=0;" edge="1" parent="1" source="U6XWI17R4oiPlInl3l0V-10" target="U6XWI17R4oiPlInl3l0V-31">
          <mxGeometry relative="1" as="geometry">
            <Array as="points">
              <mxPoint x="400" y="110" />
              <mxPoint x="400" y="220" />
            </Array>
          </mxGeometry>
        </mxCell>
        <mxCell id="U6XWI17R4oiPlInl3l0V-10" value="FRONTEND EC2" style="rounded=0;whiteSpace=wrap;html=1;fillColor=#d5e8d4;strokeColor=#82b366;" parent="1" vertex="1">
          <mxGeometry x="300" y="80" width="80" height="60" as="geometry" />
        </mxCell>
        <mxCell id="ZDiyyLi-UDaJgCNsjGBP-36" style="edgeStyle=orthogonalEdgeStyle;rounded=0;orthogonalLoop=1;jettySize=auto;html=1;exitX=1;exitY=0.5;exitDx=0;exitDy=0;entryX=0;entryY=1;entryDx=0;entryDy=0;" edge="1" parent="1" source="U6XWI17R4oiPlInl3l0V-12" target="U6XWI17R4oiPlInl3l0V-31">
          <mxGeometry relative="1" as="geometry">
            <Array as="points">
              <mxPoint x="400" y="380" />
              <mxPoint x="400" y="270" />
            </Array>
          </mxGeometry>
        </mxCell>
        <mxCell id="U6XWI17R4oiPlInl3l0V-12" value="FRONTEND EC2" style="rounded=0;whiteSpace=wrap;html=1;fillColor=#d5e8d4;strokeColor=#82b366;" parent="1" vertex="1">
          <mxGeometry x="290" y="350" width="80" height="60" as="geometry" />
        </mxCell>
        <mxCell id="U6XWI17R4oiPlInl3l0V-13" value="NAT" style="ellipse;whiteSpace=wrap;html=1;aspect=fixed;fillColor=#dae8fc;strokeColor=#6c8ebf;" parent="1" vertex="1">
          <mxGeometry x="410" y="70" width="80" height="80" as="geometry" />
        </mxCell>
        <mxCell id="U6XWI17R4oiPlInl3l0V-14" style="edgeStyle=orthogonalEdgeStyle;rounded=0;orthogonalLoop=1;jettySize=auto;html=1;exitX=0.5;exitY=1;exitDx=0;exitDy=0;entryX=0.5;entryY=1;entryDx=0;entryDy=0;" parent="1" source="U6XWI17R4oiPlInl3l0V-15" target="U6XWI17R4oiPlInl3l0V-2" edge="1">
          <mxGeometry relative="1" as="geometry">
            <Array as="points">
              <mxPoint x="450" y="450" />
              <mxPoint x="90" y="450" />
            </Array>
          </mxGeometry>
        </mxCell>
        <mxCell id="U6XWI17R4oiPlInl3l0V-15" value="NAT" style="ellipse;whiteSpace=wrap;html=1;aspect=fixed;fillColor=#dae8fc;strokeColor=#6c8ebf;" parent="1" vertex="1">
          <mxGeometry x="410" y="340" width="80" height="80" as="geometry" />
        </mxCell>
        <mxCell id="U6XWI17R4oiPlInl3l0V-16" value="PUBLIC" style="text;html=1;strokeColor=none;fillColor=none;align=center;verticalAlign=middle;whiteSpace=wrap;rounded=0;" parent="1" vertex="1">
          <mxGeometry x="280" y="150" width="40" height="20" as="geometry" />
        </mxCell>
        <mxCell id="U6XWI17R4oiPlInl3l0V-17" value="PUBLIC" style="text;html=1;strokeColor=none;fillColor=none;align=center;verticalAlign=middle;whiteSpace=wrap;rounded=0;" parent="1" vertex="1">
          <mxGeometry x="280" y="320" width="40" height="20" as="geometry" />
        </mxCell>
        <mxCell id="U6XWI17R4oiPlInl3l0V-18" value="" style="rounded=0;whiteSpace=wrap;html=1;dashed=1;fillColor=#ffe6cc;strokeColor=#d79b00;" parent="1" vertex="1">
          <mxGeometry x="530" y="320" width="260" height="120" as="geometry" />
        </mxCell>
        <mxCell id="U6XWI17R4oiPlInl3l0V-20" style="edgeStyle=orthogonalEdgeStyle;rounded=0;orthogonalLoop=1;jettySize=auto;html=1;exitX=0;exitY=0.25;exitDx=0;exitDy=0;entryX=1;entryY=0.5;entryDx=0;entryDy=0;" parent="1" source="U6XWI17R4oiPlInl3l0V-21" target="U6XWI17R4oiPlInl3l0V-13" edge="1">
          <mxGeometry relative="1" as="geometry" />
        </mxCell>
        <mxCell id="ZDiyyLi-UDaJgCNsjGBP-44" style="edgeStyle=orthogonalEdgeStyle;rounded=0;orthogonalLoop=1;jettySize=auto;html=1;exitX=1;exitY=0.5;exitDx=0;exitDy=0;" edge="1" parent="1" source="U6XWI17R4oiPlInl3l0V-21">
          <mxGeometry relative="1" as="geometry">
            <mxPoint x="710" y="200" as="targetPoint" />
          </mxGeometry>
        </mxCell>
        <mxCell id="U6XWI17R4oiPlInl3l0V-21" value="BACKEND&lt;br&gt;&lt;span style=&quot;color: rgba(0 , 0 , 0 , 0) ; font-family: monospace ; font-size: 0px&quot;&gt;%3CmxGraphModel%3E%3Croot%3E%3CmxCell%20id%3D%220%22%2F%3E%3CmxCell%20id%3D%221%22%20parent%3D%220%22%2F%3E%3CmxCell%20id%3D%222%22%20value%3D%22FRONTEND%20EC2%22%20style%3D%22rounded%3D0%3BwhiteSpace%3Dwrap%3Bhtml%3D1%3BfillColor%3D%23d5e8d4%3BstrokeColor%3D%2382b366%3B%22%20vertex%3D%221%22%20parent%3D%221%22%3E%3CmxGeometry%20x%3D%22300%22%20y%3D%2280%22%20width%3D%2280%22%20height%3D%2260%22%20as%3D%22geometry%22%2F%3E%3C%2FmxCell%3E%3C%2Froot%3E%3C%2FmxGraphModel%3E&lt;/span&gt;EC2" style="rounded=0;whiteSpace=wrap;html=1;fillColor=#f8cecc;strokeColor=#b85450;" parent="1" vertex="1">
          <mxGeometry x="550" y="95" width="80" height="60" as="geometry" />
        </mxCell>
        <mxCell id="U6XWI17R4oiPlInl3l0V-23" style="edgeStyle=orthogonalEdgeStyle;rounded=0;orthogonalLoop=1;jettySize=auto;html=1;exitX=0;exitY=0.75;exitDx=0;exitDy=0;entryX=1;entryY=0.5;entryDx=0;entryDy=0;" parent="1" source="U6XWI17R4oiPlInl3l0V-24" target="U6XWI17R4oiPlInl3l0V-15" edge="1">
          <mxGeometry relative="1" as="geometry" />
        </mxCell>
        <mxCell id="ZDiyyLi-UDaJgCNsjGBP-43" style="edgeStyle=orthogonalEdgeStyle;rounded=0;orthogonalLoop=1;jettySize=auto;html=1;exitX=1;exitY=0.5;exitDx=0;exitDy=0;" edge="1" parent="1" source="U6XWI17R4oiPlInl3l0V-24">
          <mxGeometry relative="1" as="geometry">
            <mxPoint x="710" y="290" as="targetPoint" />
          </mxGeometry>
        </mxCell>
        <mxCell id="U6XWI17R4oiPlInl3l0V-24" value="BACKEND&lt;br&gt;&lt;span style=&quot;color: rgba(0 , 0 , 0 , 0) ; font-family: monospace ; font-size: 0px&quot;&gt;%3CmxGraphModel%3E%3Croot%3E%3CmxCell%20id%3D%220%22%2F%3E%3CmxCell%20id%3D%221%22%20parent%3D%220%22%2F%3E%3CmxCell%20id%3D%222%22%20value%3D%22FRONTEND%20EC2%22%20style%3D%22rounded%3D0%3BwhiteSpace%3Dwrap%3Bhtml%3D1%3BfillColor%3D%23d5e8d4%3BstrokeColor%3D%2382b366%3B%22%20vertex%3D%221%22%20parent%3D%221%22%3E%3CmxGeometry%20x%3D%22300%22%20y%3D%2280%22%20width%3D%2280%22%20height%3D%2260%22%20as%3D%22geometry%22%2F%3E%3C%2FmxCell%3E%3C%2Froot%3E%3C%2FmxGraphModel%3E&lt;/span&gt;EC2" style="rounded=0;whiteSpace=wrap;html=1;fillColor=#f8cecc;strokeColor=#b85450;" parent="1" vertex="1">
          <mxGeometry x="550" y="335" width="80" height="60" as="geometry" />
        </mxCell>
        <mxCell id="U6XWI17R4oiPlInl3l0V-25" value="PRIVATE" style="text;html=1;strokeColor=none;fillColor=none;align=center;verticalAlign=middle;whiteSpace=wrap;rounded=0;" parent="1" vertex="1">
          <mxGeometry x="540" y="50" width="40" height="20" as="geometry" />
        </mxCell>
        <mxCell id="U6XWI17R4oiPlInl3l0V-26" value="PRIVATE" style="text;html=1;strokeColor=none;fillColor=none;align=center;verticalAlign=middle;whiteSpace=wrap;rounded=0;" parent="1" vertex="1">
          <mxGeometry x="540" y="415" width="40" height="20" as="geometry" />
        </mxCell>
        <mxCell id="U6XWI17R4oiPlInl3l0V-29" style="edgeStyle=orthogonalEdgeStyle;rounded=0;orthogonalLoop=1;jettySize=auto;html=1;exitX=1;exitY=0.25;exitDx=0;exitDy=0;entryX=0.5;entryY=1;entryDx=0;entryDy=0;" parent="1" source="U6XWI17R4oiPlInl3l0V-31" target="U6XWI17R4oiPlInl3l0V-21" edge="1">
          <mxGeometry relative="1" as="geometry" />
        </mxCell>
        <mxCell id="U6XWI17R4oiPlInl3l0V-30" style="edgeStyle=orthogonalEdgeStyle;rounded=0;orthogonalLoop=1;jettySize=auto;html=1;exitX=1;exitY=0.75;exitDx=0;exitDy=0;entryX=0.5;entryY=0;entryDx=0;entryDy=0;" parent="1" source="U6XWI17R4oiPlInl3l0V-31" target="U6XWI17R4oiPlInl3l0V-24" edge="1">
          <mxGeometry relative="1" as="geometry" />
        </mxCell>
        <mxCell id="U6XWI17R4oiPlInl3l0V-31" value="&lt;b&gt;INTERNAL LOAD BALANCER&lt;/b&gt;" style="rounded=0;whiteSpace=wrap;html=1;fillColor=#d5e8d4;strokeColor=#82b366;" parent="1" vertex="1">
          <mxGeometry x="500" y="220" width="90" height="50" as="geometry" />
        </mxCell>
        <mxCell id="U6XWI17R4oiPlInl3l0V-32" style="edgeStyle=orthogonalEdgeStyle;rounded=0;orthogonalLoop=1;jettySize=auto;html=1;exitX=0.5;exitY=0;exitDx=0;exitDy=0;entryX=0.965;entryY=1.044;entryDx=0;entryDy=0;entryPerimeter=0;" parent="1" source="U6XWI17R4oiPlInl3l0V-34" edge="1">
          <mxGeometry relative="1" as="geometry">
            <mxPoint x="790.4000000000001" y="197.03999999999996" as="targetPoint" />
          </mxGeometry>
        </mxCell>
        <mxCell id="U6XWI17R4oiPlInl3l0V-33" style="edgeStyle=orthogonalEdgeStyle;rounded=0;orthogonalLoop=1;jettySize=auto;html=1;exitX=0.5;exitY=1;exitDx=0;exitDy=0;entryX=0.966;entryY=-0.012;entryDx=0;entryDy=0;entryPerimeter=0;" parent="1" source="U6XWI17R4oiPlInl3l0V-34" edge="1">
          <mxGeometry relative="1" as="geometry">
            <mxPoint x="790.96" y="298.08000000000004" as="targetPoint" />
          </mxGeometry>
        </mxCell>
        <mxCell id="U6XWI17R4oiPlInl3l0V-34" value="S3" style="shape=cylinder;whiteSpace=wrap;html=1;boundedLbl=1;backgroundOutline=1;fillColor=#dae8fc;strokeColor=#6c8ebf;" parent="1" vertex="1">
          <mxGeometry x="760" y="220" width="60" height="60" as="geometry" />
        </mxCell>
        <mxCell id="U6XWI17R4oiPlInl3l0V-35" value="AZ1" style="text;html=1;strokeColor=none;fillColor=none;align=center;verticalAlign=middle;whiteSpace=wrap;rounded=0;dashed=1;dashPattern=1 1;" parent="1" vertex="1">
          <mxGeometry x="250" y="170" width="40" height="20" as="geometry" />
        </mxCell>
        <mxCell id="U6XWI17R4oiPlInl3l0V-36" value="AZ2" style="text;html=1;strokeColor=none;fillColor=none;align=center;verticalAlign=middle;whiteSpace=wrap;rounded=0;dashed=1;dashPattern=1 1;" parent="1" vertex="1">
          <mxGeometry x="250" y="300" width="40" height="20" as="geometry" />
        </mxCell>
        <mxCell id="U6XWI17R4oiPlInl3l0V-39" style="edgeStyle=orthogonalEdgeStyle;rounded=0;orthogonalLoop=1;jettySize=auto;html=1;exitX=0.5;exitY=0;exitDx=0;exitDy=0;entryX=0.5;entryY=0;entryDx=0;entryDy=0;" parent="1" source="U6XWI17R4oiPlInl3l0V-13" target="U6XWI17R4oiPlInl3l0V-2" edge="1">
          <mxGeometry relative="1" as="geometry">
            <mxPoint x="450" y="70" as="sourcePoint" />
            <mxPoint x="90" y="220" as="targetPoint" />
            <Array as="points">
              <mxPoint x="450" y="40" />
              <mxPoint x="90" y="40" />
            </Array>
          </mxGeometry>
        </mxCell>
        <mxCell id="U6XWI17R4oiPlInl3l0V-42" value="&lt;b&gt;&quot; / &quot;&lt;/b&gt;" style="rounded=0;whiteSpace=wrap;html=1;fillColor=#ffe6cc;strokeColor=#d79b00;" parent="1" vertex="1">
          <mxGeometry x="330" y="200" width="50" height="20" as="geometry" />
        </mxCell>
        <mxCell id="U6XWI17R4oiPlInl3l0V-43" value="&lt;b&gt;&quot; / &quot;&lt;/b&gt;" style="rounded=0;whiteSpace=wrap;html=1;fillColor=#ffe6cc;strokeColor=#d79b00;" parent="1" vertex="1">
          <mxGeometry x="330" y="270" width="50" height="20" as="geometry" />
        </mxCell>
        <mxCell id="ZDiyyLi-UDaJgCNsjGBP-53" style="edgeStyle=orthogonalEdgeStyle;rounded=0;orthogonalLoop=1;jettySize=auto;html=1;exitX=1;exitY=0.5;exitDx=0;exitDy=0;entryX=0;entryY=0.5;entryDx=0;entryDy=0;" edge="1" parent="1" source="U6XWI17R4oiPlInl3l0V-47" target="U6XWI17R4oiPlInl3l0V-31">
          <mxGeometry relative="1" as="geometry" />
        </mxCell>
        <mxCell id="U6XWI17R4oiPlInl3l0V-47" value="&lt;b&gt;&quot; /api &quot;&lt;/b&gt;" style="rounded=0;whiteSpace=wrap;html=1;fillColor=#dae8fc;strokeColor=#6c8ebf;" parent="1" vertex="1">
          <mxGeometry x="365" y="235" width="50" height="20" as="geometry" />
        </mxCell>
        <mxCell id="U6XWI17R4oiPlInl3l0V-49" style="edgeStyle=orthogonalEdgeStyle;rounded=0;orthogonalLoop=1;jettySize=auto;html=1;exitX=1;exitY=0.5;exitDx=0;exitDy=0;entryX=0;entryY=0.5;entryDx=0;entryDy=0;" parent="1" source="U6XWI17R4oiPlInl3l0V-5" target="U6XWI17R4oiPlInl3l0V-47" edge="1">
          <mxGeometry relative="1" as="geometry">
            <mxPoint x="320" y="245" as="sourcePoint" />
            <mxPoint x="440" y="245" as="targetPoint" />
          </mxGeometry>
        </mxCell>
        <mxCell id="NPWsK2s5dprimzot-6Zy-1" style="edgeStyle=orthogonalEdgeStyle;rounded=0;orthogonalLoop=1;jettySize=auto;html=1;exitX=1;exitY=0.5;exitDx=0;exitDy=0;entryX=0;entryY=0.5;entryDx=0;entryDy=0;" parent="1" source="NPWsK2s5dprimzot-6Zy-2" target="NPWsK2s5dprimzot-6Zy-6" edge="1">
          <mxGeometry relative="1" as="geometry" />
        </mxCell>
        <mxCell id="NPWsK2s5dprimzot-6Zy-2" value="INTERNET GATEWAY" style="rounded=0;whiteSpace=wrap;html=1;fillColor=#dae8fc;strokeColor=#6c8ebf;shadow=1;" parent="1" vertex="1">
          <mxGeometry x="60" y="1040" width="80" height="50" as="geometry" />
        </mxCell>
        <mxCell id="NPWsK2s5dprimzot-6Zy-3" style="edgeStyle=orthogonalEdgeStyle;rounded=0;orthogonalLoop=1;jettySize=auto;html=1;exitX=1;exitY=0.25;exitDx=0;exitDy=0;entryX=0.5;entryY=1;entryDx=0;entryDy=0;" parent="1" source="NPWsK2s5dprimzot-6Zy-6" target="NPWsK2s5dprimzot-6Zy-10" edge="1">
          <mxGeometry relative="1" as="geometry" />
        </mxCell>
        <mxCell id="NPWsK2s5dprimzot-6Zy-4" style="edgeStyle=orthogonalEdgeStyle;rounded=0;orthogonalLoop=1;jettySize=auto;html=1;exitX=1;exitY=0.75;exitDx=0;exitDy=0;entryX=0.63;entryY=0.039;entryDx=0;entryDy=0;entryPerimeter=0;" parent="1" source="NPWsK2s5dprimzot-6Zy-6" target="NPWsK2s5dprimzot-6Zy-11" edge="1">
          <mxGeometry relative="1" as="geometry" />
        </mxCell>
        <mxCell id="NPWsK2s5dprimzot-6Zy-6" value="LOAD BALANCER" style="rounded=0;whiteSpace=wrap;html=1;fillColor=#d5e8d4;strokeColor=#82b366;" parent="1" vertex="1">
          <mxGeometry x="237.5" y="1040" width="90" height="50" as="geometry" />
        </mxCell>
        <mxCell id="NPWsK2s5dprimzot-6Zy-7" value="" style="rounded=0;whiteSpace=wrap;html=1;dashed=1;fillColor=none;strokeColor=#82b366;" parent="1" vertex="1">
          <mxGeometry x="280" y="870" width="240" height="120" as="geometry" />
        </mxCell>
        <mxCell id="NPWsK2s5dprimzot-6Zy-8" value="" style="rounded=0;whiteSpace=wrap;html=1;dashed=1;fillColor=none;strokeColor=#82b366;" parent="1" vertex="1">
          <mxGeometry x="280" y="1140" width="240" height="120" as="geometry" />
        </mxCell>
        <mxCell id="NPWsK2s5dprimzot-6Zy-9" value="" style="rounded=0;whiteSpace=wrap;html=1;dashed=1;fillColor=#ffe6cc;strokeColor=#d79b00;" parent="1" vertex="1">
          <mxGeometry x="540" y="870" width="260" height="120" as="geometry" />
        </mxCell>
        <mxCell id="ZDiyyLi-UDaJgCNsjGBP-49" style="edgeStyle=orthogonalEdgeStyle;rounded=0;orthogonalLoop=1;jettySize=auto;html=1;exitX=0;exitY=0.5;exitDx=0;exitDy=0;entryX=0.25;entryY=0;entryDx=0;entryDy=0;" edge="1" parent="1" source="NPWsK2s5dprimzot-6Zy-10" target="NPWsK2s5dprimzot-6Zy-6">
          <mxGeometry relative="1" as="geometry" />
        </mxCell>
        <mxCell id="NPWsK2s5dprimzot-6Zy-10" value="FRONTEND EC2" style="rounded=0;whiteSpace=wrap;html=1;fillColor=#d5e8d4;strokeColor=#82b366;" parent="1" vertex="1">
          <mxGeometry x="310" y="900" width="80" height="60" as="geometry" />
        </mxCell>
        <mxCell id="ZDiyyLi-UDaJgCNsjGBP-50" style="edgeStyle=orthogonalEdgeStyle;rounded=0;orthogonalLoop=1;jettySize=auto;html=1;exitX=0;exitY=0.5;exitDx=0;exitDy=0;entryX=0.25;entryY=1;entryDx=0;entryDy=0;" edge="1" parent="1" source="NPWsK2s5dprimzot-6Zy-11" target="NPWsK2s5dprimzot-6Zy-6">
          <mxGeometry relative="1" as="geometry" />
        </mxCell>
        <mxCell id="NPWsK2s5dprimzot-6Zy-11" value="FRONTEND EC2" style="rounded=0;whiteSpace=wrap;html=1;fillColor=#d5e8d4;strokeColor=#82b366;" parent="1" vertex="1">
          <mxGeometry x="300" y="1170" width="80" height="60" as="geometry" />
        </mxCell>
        <mxCell id="NPWsK2s5dprimzot-6Zy-12" value="NAT" style="ellipse;whiteSpace=wrap;html=1;aspect=fixed;fillColor=#dae8fc;strokeColor=#6c8ebf;" parent="1" vertex="1">
          <mxGeometry x="420" y="890" width="80" height="80" as="geometry" />
        </mxCell>
        <mxCell id="NPWsK2s5dprimzot-6Zy-13" style="edgeStyle=orthogonalEdgeStyle;rounded=0;orthogonalLoop=1;jettySize=auto;html=1;exitX=0.5;exitY=1;exitDx=0;exitDy=0;entryX=0.5;entryY=1;entryDx=0;entryDy=0;" parent="1" source="NPWsK2s5dprimzot-6Zy-14" target="NPWsK2s5dprimzot-6Zy-2" edge="1">
          <mxGeometry relative="1" as="geometry">
            <Array as="points">
              <mxPoint x="460" y="1270" />
              <mxPoint x="100" y="1270" />
            </Array>
          </mxGeometry>
        </mxCell>
        <mxCell id="NPWsK2s5dprimzot-6Zy-14" value="NAT" style="ellipse;whiteSpace=wrap;html=1;aspect=fixed;fillColor=#dae8fc;strokeColor=#6c8ebf;" parent="1" vertex="1">
          <mxGeometry x="420" y="1160" width="80" height="80" as="geometry" />
        </mxCell>
        <mxCell id="NPWsK2s5dprimzot-6Zy-15" value="PUBLIC" style="text;html=1;strokeColor=none;fillColor=none;align=center;verticalAlign=middle;whiteSpace=wrap;rounded=0;" parent="1" vertex="1">
          <mxGeometry x="290" y="970" width="40" height="20" as="geometry" />
        </mxCell>
        <mxCell id="NPWsK2s5dprimzot-6Zy-16" value="PUBLIC" style="text;html=1;strokeColor=none;fillColor=none;align=center;verticalAlign=middle;whiteSpace=wrap;rounded=0;" parent="1" vertex="1">
          <mxGeometry x="290" y="1140" width="40" height="20" as="geometry" />
        </mxCell>
        <mxCell id="NPWsK2s5dprimzot-6Zy-17" value="" style="rounded=0;whiteSpace=wrap;html=1;dashed=1;fillColor=#ffe6cc;strokeColor=#d79b00;" parent="1" vertex="1">
          <mxGeometry x="540" y="1140" width="260" height="120" as="geometry" />
        </mxCell>
        <mxCell id="NPWsK2s5dprimzot-6Zy-19" style="edgeStyle=orthogonalEdgeStyle;rounded=0;orthogonalLoop=1;jettySize=auto;html=1;exitX=0;exitY=0.25;exitDx=0;exitDy=0;entryX=1;entryY=0.5;entryDx=0;entryDy=0;" parent="1" source="NPWsK2s5dprimzot-6Zy-20" target="NPWsK2s5dprimzot-6Zy-12" edge="1">
          <mxGeometry relative="1" as="geometry" />
        </mxCell>
        <mxCell id="ZDiyyLi-UDaJgCNsjGBP-3" style="edgeStyle=orthogonalEdgeStyle;rounded=0;orthogonalLoop=1;jettySize=auto;html=1;exitX=1;exitY=0.5;exitDx=0;exitDy=0;entryX=0.5;entryY=0;entryDx=0;entryDy=0;" edge="1" parent="1" source="NPWsK2s5dprimzot-6Zy-20" target="NPWsK2s5dprimzot-6Zy-26">
          <mxGeometry relative="1" as="geometry" />
        </mxCell>
        <mxCell id="ZDiyyLi-UDaJgCNsjGBP-6" style="edgeStyle=orthogonalEdgeStyle;rounded=0;orthogonalLoop=1;jettySize=auto;html=1;exitX=1;exitY=0.75;exitDx=0;exitDy=0;" edge="1" parent="1" source="NPWsK2s5dprimzot-6Zy-20">
          <mxGeometry relative="1" as="geometry">
            <mxPoint x="690" y="1020" as="targetPoint" />
          </mxGeometry>
        </mxCell>
        <mxCell id="NPWsK2s5dprimzot-6Zy-20" value="BACKEND&lt;br&gt;&lt;span style=&quot;color: rgba(0 , 0 , 0 , 0) ; font-family: monospace ; font-size: 0px&quot;&gt;%3CmxGraphModel%3E%3Croot%3E%3CmxCell%20id%3D%220%22%2F%3E%3CmxCell%20id%3D%221%22%20parent%3D%220%22%2F%3E%3CmxCell%20id%3D%222%22%20value%3D%22FRONTEND%20EC2%22%20style%3D%22rounded%3D0%3BwhiteSpace%3Dwrap%3Bhtml%3D1%3BfillColor%3D%23d5e8d4%3BstrokeColor%3D%2382b366%3B%22%20vertex%3D%221%22%20parent%3D%221%22%3E%3CmxGeometry%20x%3D%22300%22%20y%3D%2280%22%20width%3D%2280%22%20height%3D%2260%22%20as%3D%22geometry%22%2F%3E%3C%2FmxCell%3E%3C%2Froot%3E%3C%2FmxGraphModel%3E&lt;/span&gt;EC2" style="rounded=0;whiteSpace=wrap;html=1;fillColor=#f8cecc;strokeColor=#b85450;" parent="1" vertex="1">
          <mxGeometry x="560" y="915" width="80" height="60" as="geometry" />
        </mxCell>
        <mxCell id="NPWsK2s5dprimzot-6Zy-22" style="edgeStyle=orthogonalEdgeStyle;rounded=0;orthogonalLoop=1;jettySize=auto;html=1;exitX=0;exitY=0.75;exitDx=0;exitDy=0;entryX=1;entryY=0.5;entryDx=0;entryDy=0;" parent="1" source="NPWsK2s5dprimzot-6Zy-23" target="NPWsK2s5dprimzot-6Zy-14" edge="1">
          <mxGeometry relative="1" as="geometry" />
        </mxCell>
        <mxCell id="ZDiyyLi-UDaJgCNsjGBP-4" style="edgeStyle=orthogonalEdgeStyle;rounded=0;orthogonalLoop=1;jettySize=auto;html=1;exitX=1;exitY=0.5;exitDx=0;exitDy=0;" edge="1" parent="1" source="NPWsK2s5dprimzot-6Zy-23">
          <mxGeometry relative="1" as="geometry">
            <mxPoint x="780" y="1110" as="targetPoint" />
          </mxGeometry>
        </mxCell>
        <mxCell id="ZDiyyLi-UDaJgCNsjGBP-7" style="edgeStyle=orthogonalEdgeStyle;rounded=0;orthogonalLoop=1;jettySize=auto;html=1;exitX=1;exitY=0.25;exitDx=0;exitDy=0;" edge="1" parent="1" source="NPWsK2s5dprimzot-6Zy-23">
          <mxGeometry relative="1" as="geometry">
            <mxPoint x="690" y="1110" as="targetPoint" />
          </mxGeometry>
        </mxCell>
        <mxCell id="NPWsK2s5dprimzot-6Zy-23" value="BACKEND&lt;br&gt;&lt;span style=&quot;color: rgba(0 , 0 , 0 , 0) ; font-family: monospace ; font-size: 0px&quot;&gt;%3CmxGraphModel%3E%3Croot%3E%3CmxCell%20id%3D%220%22%2F%3E%3CmxCell%20id%3D%221%22%20parent%3D%220%22%2F%3E%3CmxCell%20id%3D%222%22%20value%3D%22FRONTEND%20EC2%22%20style%3D%22rounded%3D0%3BwhiteSpace%3Dwrap%3Bhtml%3D1%3BfillColor%3D%23d5e8d4%3BstrokeColor%3D%2382b366%3B%22%20vertex%3D%221%22%20parent%3D%221%22%3E%3CmxGeometry%20x%3D%22300%22%20y%3D%2280%22%20width%3D%2280%22%20height%3D%2260%22%20as%3D%22geometry%22%2F%3E%3C%2FmxCell%3E%3C%2Froot%3E%3C%2FmxGraphModel%3E&lt;/span&gt;EC2" style="rounded=0;whiteSpace=wrap;html=1;fillColor=#f8cecc;strokeColor=#b85450;" parent="1" vertex="1">
          <mxGeometry x="560" y="1155" width="80" height="60" as="geometry" />
        </mxCell>
        <mxCell id="NPWsK2s5dprimzot-6Zy-24" value="PRIVATE" style="text;html=1;strokeColor=none;fillColor=none;align=center;verticalAlign=middle;whiteSpace=wrap;rounded=0;" parent="1" vertex="1">
          <mxGeometry x="550" y="870" width="40" height="20" as="geometry" />
        </mxCell>
        <mxCell id="NPWsK2s5dprimzot-6Zy-25" value="PRIVATE" style="text;html=1;strokeColor=none;fillColor=none;align=center;verticalAlign=middle;whiteSpace=wrap;rounded=0;" parent="1" vertex="1">
          <mxGeometry x="550" y="1235" width="40" height="20" as="geometry" />
        </mxCell>
        <mxCell id="NPWsK2s5dprimzot-6Zy-26" value="DATABASE" style="rounded=0;whiteSpace=wrap;html=1;fillColor=#fff2cc;strokeColor=#d6b656;" parent="1" vertex="1">
          <mxGeometry x="730" y="1025" width="90" height="80" as="geometry" />
        </mxCell>
        <mxCell id="ZDiyyLi-UDaJgCNsjGBP-11" style="edgeStyle=orthogonalEdgeStyle;rounded=0;orthogonalLoop=1;jettySize=auto;html=1;exitX=0;exitY=0.5;exitDx=0;exitDy=0;entryX=1;entryY=0.5;entryDx=0;entryDy=0;" edge="1" parent="1" source="NPWsK2s5dprimzot-6Zy-33" target="NPWsK2s5dprimzot-6Zy-26">
          <mxGeometry relative="1" as="geometry" />
        </mxCell>
        <mxCell id="ZDiyyLi-UDaJgCNsjGBP-51" style="edgeStyle=orthogonalEdgeStyle;rounded=0;orthogonalLoop=1;jettySize=auto;html=1;exitX=0.5;exitY=0;exitDx=0;exitDy=0;entryX=1.001;entryY=0.409;entryDx=0;entryDy=0;entryPerimeter=0;" edge="1" parent="1" source="NPWsK2s5dprimzot-6Zy-33" target="NPWsK2s5dprimzot-6Zy-9">
          <mxGeometry relative="1" as="geometry" />
        </mxCell>
        <mxCell id="ZDiyyLi-UDaJgCNsjGBP-52" style="edgeStyle=orthogonalEdgeStyle;rounded=0;orthogonalLoop=1;jettySize=auto;html=1;exitX=0.5;exitY=1;exitDx=0;exitDy=0;entryX=1;entryY=0.5;entryDx=0;entryDy=0;" edge="1" parent="1" source="NPWsK2s5dprimzot-6Zy-33" target="NPWsK2s5dprimzot-6Zy-17">
          <mxGeometry relative="1" as="geometry" />
        </mxCell>
        <mxCell id="NPWsK2s5dprimzot-6Zy-33" value="S3" style="shape=cylinder;whiteSpace=wrap;html=1;boundedLbl=1;backgroundOutline=1;fillColor=#dae8fc;strokeColor=#6c8ebf;" parent="1" vertex="1">
          <mxGeometry x="850" y="1035" width="60" height="60" as="geometry" />
        </mxCell>
        <mxCell id="NPWsK2s5dprimzot-6Zy-34" value="AZ1" style="text;html=1;strokeColor=none;fillColor=none;align=center;verticalAlign=middle;whiteSpace=wrap;rounded=0;dashed=1;dashPattern=1 1;" parent="1" vertex="1">
          <mxGeometry x="260" y="990" width="40" height="20" as="geometry" />
        </mxCell>
        <mxCell id="NPWsK2s5dprimzot-6Zy-35" value="AZ2" style="text;html=1;strokeColor=none;fillColor=none;align=center;verticalAlign=middle;whiteSpace=wrap;rounded=0;dashed=1;dashPattern=1 1;" parent="1" vertex="1">
          <mxGeometry x="260" y="1120" width="40" height="20" as="geometry" />
        </mxCell>
        <mxCell id="NPWsK2s5dprimzot-6Zy-36" style="edgeStyle=orthogonalEdgeStyle;rounded=0;orthogonalLoop=1;jettySize=auto;html=1;exitX=0.5;exitY=0;exitDx=0;exitDy=0;entryX=0.5;entryY=0;entryDx=0;entryDy=0;" parent="1" source="NPWsK2s5dprimzot-6Zy-12" target="NPWsK2s5dprimzot-6Zy-2" edge="1">
          <mxGeometry relative="1" as="geometry">
            <mxPoint x="460" y="890" as="sourcePoint" />
            <mxPoint x="100" y="1040" as="targetPoint" />
            <Array as="points">
              <mxPoint x="460" y="860" />
              <mxPoint x="100" y="860" />
            </Array>
          </mxGeometry>
        </mxCell>
        <mxCell id="NPWsK2s5dprimzot-6Zy-37" value="&lt;b&gt;&quot; / &quot;&lt;/b&gt;" style="rounded=0;whiteSpace=wrap;html=1;fillColor=#ffe6cc;strokeColor=#d79b00;" parent="1" vertex="1">
          <mxGeometry x="337.5" y="1020" width="50" height="20" as="geometry" />
        </mxCell>
        <mxCell id="NPWsK2s5dprimzot-6Zy-38" value="&lt;b&gt;&quot; / &quot;&lt;/b&gt;" style="rounded=0;whiteSpace=wrap;html=1;fillColor=#ffe6cc;strokeColor=#d79b00;" parent="1" vertex="1">
          <mxGeometry x="337.5" y="1090" width="50" height="20" as="geometry" />
        </mxCell>
        <mxCell id="NPWsK2s5dprimzot-6Zy-43" style="edgeStyle=orthogonalEdgeStyle;rounded=0;orthogonalLoop=1;jettySize=auto;html=1;exitX=1;exitY=0.25;exitDx=0;exitDy=0;entryX=0.625;entryY=0.875;entryDx=0;entryDy=0;entryPerimeter=0;" parent="1" source="NPWsK2s5dprimzot-6Zy-39" edge="1">
          <mxGeometry relative="1" as="geometry">
            <mxPoint x="610" y="990" as="targetPoint" />
            <Array as="points">
              <mxPoint x="610" y="1060" />
            </Array>
          </mxGeometry>
        </mxCell>
        <mxCell id="NPWsK2s5dprimzot-6Zy-44" style="edgeStyle=orthogonalEdgeStyle;rounded=0;orthogonalLoop=1;jettySize=auto;html=1;exitX=1;exitY=0.75;exitDx=0;exitDy=0;entryX=0.625;entryY=0.125;entryDx=0;entryDy=0;entryPerimeter=0;" parent="1" source="NPWsK2s5dprimzot-6Zy-39" edge="1">
          <mxGeometry relative="1" as="geometry">
            <mxPoint x="610" y="1140" as="targetPoint" />
          </mxGeometry>
        </mxCell>
        <mxCell id="NPWsK2s5dprimzot-6Zy-39" value="&lt;b&gt;&quot; /api/* &quot;&lt;/b&gt;" style="rounded=0;whiteSpace=wrap;html=1;fillColor=#dae8fc;strokeColor=#6c8ebf;" parent="1" vertex="1">
          <mxGeometry x="372.5" y="1055" width="50" height="20" as="geometry" />
        </mxCell>
        <mxCell id="NPWsK2s5dprimzot-6Zy-40" style="edgeStyle=orthogonalEdgeStyle;rounded=0;orthogonalLoop=1;jettySize=auto;html=1;exitX=1;exitY=0.5;exitDx=0;exitDy=0;entryX=0;entryY=0.5;entryDx=0;entryDy=0;" parent="1" source="NPWsK2s5dprimzot-6Zy-6" target="NPWsK2s5dprimzot-6Zy-39" edge="1">
          <mxGeometry relative="1" as="geometry">
            <mxPoint x="327.5" y="1065" as="sourcePoint" />
            <mxPoint x="447.5" y="1065" as="targetPoint" />
          </mxGeometry>
        </mxCell>
        <mxCell id="ZDiyyLi-UDaJgCNsjGBP-5" value="RABITMQ" style="shape=cylinder;whiteSpace=wrap;html=1;boundedLbl=1;backgroundOutline=1;fillColor=#d5e8d4;strokeColor=#82b366;" vertex="1" parent="1">
          <mxGeometry x="660" y="1025" width="60" height="80" as="geometry" />
        </mxCell>
        <mxCell id="ZDiyyLi-UDaJgCNsjGBP-42" value="DATABASE" style="rounded=0;whiteSpace=wrap;html=1;fillColor=#fff2cc;strokeColor=#d6b656;" vertex="1" parent="1">
          <mxGeometry x="660" y="205" width="90" height="80" as="geometry" />
        </mxCell>
        <mxCell id="ZDiyyLi-UDaJgCNsjGBP-138" style="edgeStyle=orthogonalEdgeStyle;rounded=0;orthogonalLoop=1;jettySize=auto;html=1;exitX=1;exitY=0.5;exitDx=0;exitDy=0;entryX=0;entryY=0.5;entryDx=0;entryDy=0;" edge="1" parent="1" source="ZDiyyLi-UDaJgCNsjGBP-139" target="ZDiyyLi-UDaJgCNsjGBP-142">
          <mxGeometry relative="1" as="geometry" />
        </mxCell>
        <mxCell id="ZDiyyLi-UDaJgCNsjGBP-139" value="INTERNET GATEWAY" style="rounded=0;whiteSpace=wrap;html=1;fillColor=#dae8fc;strokeColor=#6c8ebf;shadow=1;" vertex="1" parent="1">
          <mxGeometry x="60" y="1950" width="80" height="50" as="geometry" />
        </mxCell>
        <mxCell id="ZDiyyLi-UDaJgCNsjGBP-140" style="edgeStyle=orthogonalEdgeStyle;rounded=0;orthogonalLoop=1;jettySize=auto;html=1;exitX=1;exitY=0.25;exitDx=0;exitDy=0;entryX=0.5;entryY=1;entryDx=0;entryDy=0;" edge="1" parent="1" source="ZDiyyLi-UDaJgCNsjGBP-142" target="ZDiyyLi-UDaJgCNsjGBP-147">
          <mxGeometry relative="1" as="geometry" />
        </mxCell>
        <mxCell id="ZDiyyLi-UDaJgCNsjGBP-141" style="edgeStyle=orthogonalEdgeStyle;rounded=0;orthogonalLoop=1;jettySize=auto;html=1;exitX=1;exitY=0.75;exitDx=0;exitDy=0;entryX=0.63;entryY=0.039;entryDx=0;entryDy=0;entryPerimeter=0;" edge="1" parent="1" source="ZDiyyLi-UDaJgCNsjGBP-142" target="ZDiyyLi-UDaJgCNsjGBP-149">
          <mxGeometry relative="1" as="geometry" />
        </mxCell>
        <mxCell id="ZDiyyLi-UDaJgCNsjGBP-142" value="LOAD BALANCER" style="rounded=0;whiteSpace=wrap;html=1;fillColor=#d5e8d4;strokeColor=#82b366;" vertex="1" parent="1">
          <mxGeometry x="237.5" y="1950" width="90" height="50" as="geometry" />
        </mxCell>
        <mxCell id="ZDiyyLi-UDaJgCNsjGBP-143" value="" style="rounded=0;whiteSpace=wrap;html=1;dashed=1;fillColor=none;strokeColor=#82b366;" vertex="1" parent="1">
          <mxGeometry x="280" y="1780" width="240" height="120" as="geometry" />
        </mxCell>
        <mxCell id="ZDiyyLi-UDaJgCNsjGBP-144" value="" style="rounded=0;whiteSpace=wrap;html=1;dashed=1;fillColor=none;strokeColor=#82b366;" vertex="1" parent="1">
          <mxGeometry x="280" y="2050" width="240" height="120" as="geometry" />
        </mxCell>
        <mxCell id="ZDiyyLi-UDaJgCNsjGBP-145" value="" style="rounded=0;whiteSpace=wrap;html=1;dashed=1;fillColor=#ffe6cc;strokeColor=#d79b00;" vertex="1" parent="1">
          <mxGeometry x="540" y="1780" width="260" height="120" as="geometry" />
        </mxCell>
        <mxCell id="ZDiyyLi-UDaJgCNsjGBP-184" style="edgeStyle=orthogonalEdgeStyle;rounded=0;orthogonalLoop=1;jettySize=auto;html=1;exitX=1;exitY=0.75;exitDx=0;exitDy=0;entryX=0;entryY=0.5;entryDx=0;entryDy=0;" edge="1" parent="1" source="ZDiyyLi-UDaJgCNsjGBP-147" target="ZDiyyLi-UDaJgCNsjGBP-183">
          <mxGeometry relative="1" as="geometry" />
        </mxCell>
        <mxCell id="ZDiyyLi-UDaJgCNsjGBP-147" value="FRONTEND EC2" style="rounded=0;whiteSpace=wrap;html=1;fillColor=#d5e8d4;strokeColor=#82b366;" vertex="1" parent="1">
          <mxGeometry x="310" y="1810" width="80" height="60" as="geometry" />
        </mxCell>
        <mxCell id="ZDiyyLi-UDaJgCNsjGBP-186" style="edgeStyle=orthogonalEdgeStyle;rounded=0;orthogonalLoop=1;jettySize=auto;html=1;exitX=1;exitY=0.25;exitDx=0;exitDy=0;entryX=0;entryY=0.75;entryDx=0;entryDy=0;" edge="1" parent="1" source="ZDiyyLi-UDaJgCNsjGBP-149" target="ZDiyyLi-UDaJgCNsjGBP-183">
          <mxGeometry relative="1" as="geometry" />
        </mxCell>
        <mxCell id="ZDiyyLi-UDaJgCNsjGBP-149" value="FRONTEND EC2" style="rounded=0;whiteSpace=wrap;html=1;fillColor=#d5e8d4;strokeColor=#82b366;" vertex="1" parent="1">
          <mxGeometry x="300" y="2080" width="80" height="60" as="geometry" />
        </mxCell>
        <mxCell id="ZDiyyLi-UDaJgCNsjGBP-150" value="NAT" style="ellipse;whiteSpace=wrap;html=1;aspect=fixed;fillColor=#dae8fc;strokeColor=#6c8ebf;" vertex="1" parent="1">
          <mxGeometry x="420" y="1800" width="80" height="80" as="geometry" />
        </mxCell>
        <mxCell id="ZDiyyLi-UDaJgCNsjGBP-151" style="edgeStyle=orthogonalEdgeStyle;rounded=0;orthogonalLoop=1;jettySize=auto;html=1;exitX=0.5;exitY=1;exitDx=0;exitDy=0;entryX=0.5;entryY=1;entryDx=0;entryDy=0;" edge="1" parent="1" source="ZDiyyLi-UDaJgCNsjGBP-152" target="ZDiyyLi-UDaJgCNsjGBP-139">
          <mxGeometry relative="1" as="geometry">
            <Array as="points">
              <mxPoint x="460" y="2180" />
              <mxPoint x="100" y="2180" />
            </Array>
          </mxGeometry>
        </mxCell>
        <mxCell id="ZDiyyLi-UDaJgCNsjGBP-152" value="NAT" style="ellipse;whiteSpace=wrap;html=1;aspect=fixed;fillColor=#dae8fc;strokeColor=#6c8ebf;" vertex="1" parent="1">
          <mxGeometry x="420" y="2070" width="80" height="80" as="geometry" />
        </mxCell>
        <mxCell id="ZDiyyLi-UDaJgCNsjGBP-153" value="PUBLIC" style="text;html=1;strokeColor=none;fillColor=none;align=center;verticalAlign=middle;whiteSpace=wrap;rounded=0;" vertex="1" parent="1">
          <mxGeometry x="290" y="1880" width="40" height="20" as="geometry" />
        </mxCell>
        <mxCell id="ZDiyyLi-UDaJgCNsjGBP-154" value="PUBLIC" style="text;html=1;strokeColor=none;fillColor=none;align=center;verticalAlign=middle;whiteSpace=wrap;rounded=0;" vertex="1" parent="1">
          <mxGeometry x="290" y="2050" width="40" height="20" as="geometry" />
        </mxCell>
        <mxCell id="ZDiyyLi-UDaJgCNsjGBP-155" value="" style="rounded=0;whiteSpace=wrap;html=1;dashed=1;fillColor=#ffe6cc;strokeColor=#d79b00;" vertex="1" parent="1">
          <mxGeometry x="540" y="2050" width="260" height="120" as="geometry" />
        </mxCell>
        <mxCell id="ZDiyyLi-UDaJgCNsjGBP-156" style="edgeStyle=orthogonalEdgeStyle;rounded=0;orthogonalLoop=1;jettySize=auto;html=1;exitX=0;exitY=0.25;exitDx=0;exitDy=0;entryX=1;entryY=0.5;entryDx=0;entryDy=0;" edge="1" parent="1" source="ZDiyyLi-UDaJgCNsjGBP-159" target="ZDiyyLi-UDaJgCNsjGBP-150">
          <mxGeometry relative="1" as="geometry" />
        </mxCell>
        <mxCell id="ZDiyyLi-UDaJgCNsjGBP-157" style="edgeStyle=orthogonalEdgeStyle;rounded=0;orthogonalLoop=1;jettySize=auto;html=1;exitX=1;exitY=0.5;exitDx=0;exitDy=0;entryX=0.5;entryY=0;entryDx=0;entryDy=0;" edge="1" parent="1" source="ZDiyyLi-UDaJgCNsjGBP-159" target="ZDiyyLi-UDaJgCNsjGBP-166">
          <mxGeometry relative="1" as="geometry" />
        </mxCell>
        <mxCell id="ZDiyyLi-UDaJgCNsjGBP-158" style="edgeStyle=orthogonalEdgeStyle;rounded=0;orthogonalLoop=1;jettySize=auto;html=1;exitX=1;exitY=0.75;exitDx=0;exitDy=0;" edge="1" parent="1" source="ZDiyyLi-UDaJgCNsjGBP-159">
          <mxGeometry relative="1" as="geometry">
            <mxPoint x="690" y="1930" as="targetPoint" />
          </mxGeometry>
        </mxCell>
        <mxCell id="ZDiyyLi-UDaJgCNsjGBP-159" value="BACKEND&lt;br&gt;&lt;span style=&quot;color: rgba(0 , 0 , 0 , 0) ; font-family: monospace ; font-size: 0px&quot;&gt;%3CmxGraphModel%3E%3Croot%3E%3CmxCell%20id%3D%220%22%2F%3E%3CmxCell%20id%3D%221%22%20parent%3D%220%22%2F%3E%3CmxCell%20id%3D%222%22%20value%3D%22FRONTEND%20EC2%22%20style%3D%22rounded%3D0%3BwhiteSpace%3Dwrap%3Bhtml%3D1%3BfillColor%3D%23d5e8d4%3BstrokeColor%3D%2382b366%3B%22%20vertex%3D%221%22%20parent%3D%221%22%3E%3CmxGeometry%20x%3D%22300%22%20y%3D%2280%22%20width%3D%2280%22%20height%3D%2260%22%20as%3D%22geometry%22%2F%3E%3C%2FmxCell%3E%3C%2Froot%3E%3C%2FmxGraphModel%3E&lt;/span&gt;EC2" style="rounded=0;whiteSpace=wrap;html=1;fillColor=#f8cecc;strokeColor=#b85450;" vertex="1" parent="1">
          <mxGeometry x="560" y="1825" width="80" height="60" as="geometry" />
        </mxCell>
        <mxCell id="ZDiyyLi-UDaJgCNsjGBP-160" style="edgeStyle=orthogonalEdgeStyle;rounded=0;orthogonalLoop=1;jettySize=auto;html=1;exitX=0;exitY=0.75;exitDx=0;exitDy=0;entryX=1;entryY=0.5;entryDx=0;entryDy=0;" edge="1" parent="1" source="ZDiyyLi-UDaJgCNsjGBP-163" target="ZDiyyLi-UDaJgCNsjGBP-152">
          <mxGeometry relative="1" as="geometry" />
        </mxCell>
        <mxCell id="ZDiyyLi-UDaJgCNsjGBP-161" style="edgeStyle=orthogonalEdgeStyle;rounded=0;orthogonalLoop=1;jettySize=auto;html=1;exitX=1;exitY=0.5;exitDx=0;exitDy=0;" edge="1" parent="1" source="ZDiyyLi-UDaJgCNsjGBP-163">
          <mxGeometry relative="1" as="geometry">
            <mxPoint x="780" y="2020" as="targetPoint" />
          </mxGeometry>
        </mxCell>
        <mxCell id="ZDiyyLi-UDaJgCNsjGBP-162" style="edgeStyle=orthogonalEdgeStyle;rounded=0;orthogonalLoop=1;jettySize=auto;html=1;exitX=1;exitY=0.25;exitDx=0;exitDy=0;" edge="1" parent="1" source="ZDiyyLi-UDaJgCNsjGBP-163">
          <mxGeometry relative="1" as="geometry">
            <mxPoint x="690" y="2020" as="targetPoint" />
          </mxGeometry>
        </mxCell>
        <mxCell id="ZDiyyLi-UDaJgCNsjGBP-163" value="BACKEND&lt;br&gt;&lt;span style=&quot;color: rgba(0 , 0 , 0 , 0) ; font-family: monospace ; font-size: 0px&quot;&gt;%3CmxGraphModel%3E%3Croot%3E%3CmxCell%20id%3D%220%22%2F%3E%3CmxCell%20id%3D%221%22%20parent%3D%220%22%2F%3E%3CmxCell%20id%3D%222%22%20value%3D%22FRONTEND%20EC2%22%20style%3D%22rounded%3D0%3BwhiteSpace%3Dwrap%3Bhtml%3D1%3BfillColor%3D%23d5e8d4%3BstrokeColor%3D%2382b366%3B%22%20vertex%3D%221%22%20parent%3D%221%22%3E%3CmxGeometry%20x%3D%22300%22%20y%3D%2280%22%20width%3D%2280%22%20height%3D%2260%22%20as%3D%22geometry%22%2F%3E%3C%2FmxCell%3E%3C%2Froot%3E%3C%2FmxGraphModel%3E&lt;/span&gt;EC2" style="rounded=0;whiteSpace=wrap;html=1;fillColor=#f8cecc;strokeColor=#b85450;" vertex="1" parent="1">
          <mxGeometry x="560" y="2065" width="80" height="60" as="geometry" />
        </mxCell>
        <mxCell id="ZDiyyLi-UDaJgCNsjGBP-164" value="PRIVATE" style="text;html=1;strokeColor=none;fillColor=none;align=center;verticalAlign=middle;whiteSpace=wrap;rounded=0;" vertex="1" parent="1">
          <mxGeometry x="550" y="1780" width="40" height="20" as="geometry" />
        </mxCell>
        <mxCell id="ZDiyyLi-UDaJgCNsjGBP-165" value="PRIVATE" style="text;html=1;strokeColor=none;fillColor=none;align=center;verticalAlign=middle;whiteSpace=wrap;rounded=0;" vertex="1" parent="1">
          <mxGeometry x="550" y="2145" width="40" height="20" as="geometry" />
        </mxCell>
        <mxCell id="ZDiyyLi-UDaJgCNsjGBP-166" value="DATABASE" style="rounded=0;whiteSpace=wrap;html=1;fillColor=#fff2cc;strokeColor=#d6b656;" vertex="1" parent="1">
          <mxGeometry x="730" y="1935" width="90" height="80" as="geometry" />
        </mxCell>
        <mxCell id="ZDiyyLi-UDaJgCNsjGBP-167" style="edgeStyle=orthogonalEdgeStyle;rounded=0;orthogonalLoop=1;jettySize=auto;html=1;exitX=0;exitY=0.5;exitDx=0;exitDy=0;entryX=1;entryY=0.5;entryDx=0;entryDy=0;" edge="1" parent="1" source="ZDiyyLi-UDaJgCNsjGBP-170" target="ZDiyyLi-UDaJgCNsjGBP-166">
          <mxGeometry relative="1" as="geometry" />
        </mxCell>
        <mxCell id="ZDiyyLi-UDaJgCNsjGBP-168" style="edgeStyle=orthogonalEdgeStyle;rounded=0;orthogonalLoop=1;jettySize=auto;html=1;exitX=0.5;exitY=0;exitDx=0;exitDy=0;entryX=1.001;entryY=0.409;entryDx=0;entryDy=0;entryPerimeter=0;" edge="1" parent="1" source="ZDiyyLi-UDaJgCNsjGBP-170" target="ZDiyyLi-UDaJgCNsjGBP-145">
          <mxGeometry relative="1" as="geometry" />
        </mxCell>
        <mxCell id="ZDiyyLi-UDaJgCNsjGBP-169" style="edgeStyle=orthogonalEdgeStyle;rounded=0;orthogonalLoop=1;jettySize=auto;html=1;exitX=0.5;exitY=1;exitDx=0;exitDy=0;entryX=1;entryY=0.5;entryDx=0;entryDy=0;" edge="1" parent="1" source="ZDiyyLi-UDaJgCNsjGBP-170" target="ZDiyyLi-UDaJgCNsjGBP-155">
          <mxGeometry relative="1" as="geometry" />
        </mxCell>
        <mxCell id="ZDiyyLi-UDaJgCNsjGBP-170" value="S3" style="shape=cylinder;whiteSpace=wrap;html=1;boundedLbl=1;backgroundOutline=1;fillColor=#dae8fc;strokeColor=#6c8ebf;" vertex="1" parent="1">
          <mxGeometry x="850" y="1945" width="60" height="60" as="geometry" />
        </mxCell>
        <mxCell id="ZDiyyLi-UDaJgCNsjGBP-171" value="AZ1" style="text;html=1;strokeColor=none;fillColor=none;align=center;verticalAlign=middle;whiteSpace=wrap;rounded=0;dashed=1;dashPattern=1 1;" vertex="1" parent="1">
          <mxGeometry x="260" y="1900" width="40" height="20" as="geometry" />
        </mxCell>
        <mxCell id="ZDiyyLi-UDaJgCNsjGBP-172" value="AZ2" style="text;html=1;strokeColor=none;fillColor=none;align=center;verticalAlign=middle;whiteSpace=wrap;rounded=0;dashed=1;dashPattern=1 1;" vertex="1" parent="1">
          <mxGeometry x="260" y="2030" width="40" height="20" as="geometry" />
        </mxCell>
        <mxCell id="ZDiyyLi-UDaJgCNsjGBP-173" style="edgeStyle=orthogonalEdgeStyle;rounded=0;orthogonalLoop=1;jettySize=auto;html=1;exitX=0.5;exitY=0;exitDx=0;exitDy=0;entryX=0.5;entryY=0;entryDx=0;entryDy=0;" edge="1" parent="1" source="ZDiyyLi-UDaJgCNsjGBP-150" target="ZDiyyLi-UDaJgCNsjGBP-139">
          <mxGeometry relative="1" as="geometry">
            <mxPoint x="460" y="1800" as="sourcePoint" />
            <mxPoint x="100" y="1950" as="targetPoint" />
            <Array as="points">
              <mxPoint x="460" y="1770" />
              <mxPoint x="100" y="1770" />
            </Array>
          </mxGeometry>
        </mxCell>
        <mxCell id="ZDiyyLi-UDaJgCNsjGBP-180" value="RABITMQ" style="shape=cylinder;whiteSpace=wrap;html=1;boundedLbl=1;backgroundOutline=1;fillColor=#d5e8d4;strokeColor=#82b366;" vertex="1" parent="1">
          <mxGeometry x="660" y="1935" width="60" height="80" as="geometry" />
        </mxCell>
        <mxCell id="ZDiyyLi-UDaJgCNsjGBP-185" style="edgeStyle=orthogonalEdgeStyle;rounded=0;orthogonalLoop=1;jettySize=auto;html=1;exitX=1;exitY=0.25;exitDx=0;exitDy=0;entryX=0.25;entryY=1;entryDx=0;entryDy=0;" edge="1" parent="1" source="ZDiyyLi-UDaJgCNsjGBP-183" target="ZDiyyLi-UDaJgCNsjGBP-145">
          <mxGeometry relative="1" as="geometry" />
        </mxCell>
        <mxCell id="ZDiyyLi-UDaJgCNsjGBP-187" style="edgeStyle=orthogonalEdgeStyle;rounded=0;orthogonalLoop=1;jettySize=auto;html=1;exitX=1;exitY=0.75;exitDx=0;exitDy=0;entryX=0.25;entryY=0;entryDx=0;entryDy=0;" edge="1" parent="1" source="ZDiyyLi-UDaJgCNsjGBP-183" target="ZDiyyLi-UDaJgCNsjGBP-155">
          <mxGeometry relative="1" as="geometry" />
        </mxCell>
        <mxCell id="ZDiyyLi-UDaJgCNsjGBP-183" value="INTERNAL LOAD BALANCER" style="rounded=0;whiteSpace=wrap;html=1;fillColor=#d5e8d4;strokeColor=#82b366;" vertex="1" parent="1">
          <mxGeometry x="430" y="1945" width="90" height="50" as="geometry" />
        </mxCell>
      </root>
    </mxGraphModel>
  </diagram>
</mxfile>
